name rise37.2698peak67.6939fall79.5734.mot
datacolumns 19
datarows 55
range 12.494950 12.584957
endheader
time	ground_force1_vx	ground_force1_vy	ground_force1_vz	ground_force1_px	ground_force1_py	ground_force1_pz	ground_force2_vx	ground_force2_vy	ground_force2_vz	ground_force2_px	ground_force2_py	ground_force2_pz	ground_torque1_x	ground_torque1_y	ground_torque1_z	ground_torque2_x	ground_torque2_y	ground_torque2_z	
12.494950	0.000000	0.000000	0.000000	0.000000	0.000000	0.000000	31.101028	726.532763	-40.376442	0.255010	0.000000	-0.090695	0.000000	0.000000	0.000000	0.000000	-14.414832	0.000000	
12.496625	0.000000	0.000000	0.000000	0.000000	0.000000	0.000000	30.643510	724.533055	-40.247132	0.253904	0.000000	-0.090736	0.000000	0.000000	0.000000	0.000000	-14.374412	0.000000	
12.498285	0.000000	0.000000	0.000000	0.000000	0.000000	0.000000	30.196490	722.601849	-40.122009	0.252834	0.000000	-0.090775	0.000000	0.000000	0.000000	0.000000	-14.334717	0.000000	
12.499956	0.000000	0.000000	0.000000	0.000000	0.000000	0.000000	29.759913	720.741043	-40.001312	0.251801	0.000000	-0.090810	0.000000	0.000000	0.000000	0.000000	-14.295863	0.000000	
12.501620	0.000000	0.000000	0.000000	0.000000	0.000000	0.000000	29.333697	718.952318	-39.885260	0.250806	0.000000	-0.090841	0.000000	0.000000	0.000000	0.000000	-14.257958	0.000000	
12.503284	0.000000	0.000000	0.000000	0.000000	0.000000	0.000000	28.917730	717.237134	-39.774043	0.249848	0.000000	-0.090869	0.000000	0.000000	0.000000	0.000000	-14.221102	0.000000	
12.504951	0.000000	0.000000	0.000000	0.000000	0.000000	0.000000	28.511873	715.596743	-39.667830	0.248929	0.000000	-0.090894	0.000000	0.000000	0.000000	0.000000	-14.185387	0.000000	
12.506643	0.000000	0.000000	0.000000	0.000000	0.000000	0.000000	28.115958	714.032184	-39.566763	0.248048	0.000000	-0.090915	0.000000	0.000000	0.000000	0.000000	-14.150899	0.000000	
12.508289	0.000000	0.000000	0.000000	0.000000	0.000000	0.000000	27.729789	712.544291	-39.470955	0.247205	0.000000	-0.090932	0.000000	0.000000	0.000000	0.000000	-14.117716	0.000000	
12.509959	0.000000	0.000000	0.000000	0.000000	0.000000	0.000000	27.353143	711.133700	-39.380496	0.246400	0.000000	-0.090946	0.000000	0.000000	0.000000	0.000000	-14.085906	0.000000	
12.511620	0.000000	0.000000	0.000000	0.000000	0.000000	0.000000	26.985771	709.800849	-39.295444	0.245633	0.000000	-0.090957	0.000000	0.000000	0.000000	0.000000	-14.055531	0.000000	
12.513285	0.000000	0.000000	0.000000	0.000000	0.000000	0.000000	26.627397	708.545987	-39.215832	0.244902	0.000000	-0.090964	0.000000	0.000000	0.000000	0.000000	-14.026643	0.000000	
12.514962	0.000000	0.000000	0.000000	0.000000	0.000000	0.000000	26.277721	707.369179	-39.141665	0.244207	0.000000	-0.090968	0.000000	0.000000	0.000000	0.000000	-13.999286	0.000000	
12.516624	0.000000	0.000000	0.000000	0.000000	0.000000	0.000000	25.936417	706.270310	-39.072918	0.243547	0.000000	-0.090968	0.000000	0.000000	0.000000	0.000000	-13.973498	0.000000	
12.518290	0.000000	0.000000	0.000000	0.000000	0.000000	0.000000	25.603138	705.249095	-39.009543	0.242919	0.000000	-0.090966	0.000000	0.000000	0.000000	0.000000	-13.949306	0.000000	
12.519955	0.000000	0.000000	0.000000	0.000000	0.000000	0.000000	25.277514	704.305086	-38.951462	0.242324	0.000000	-0.090960	0.000000	0.000000	0.000000	0.000000	-13.926731	0.000000	
12.521618	0.000000	0.000000	0.000000	0.000000	0.000000	0.000000	24.959156	703.437672	-38.898570	0.241758	0.000000	-0.090952	0.000000	0.000000	0.000000	0.000000	-13.905784	0.000000	
12.523283	0.000000	0.000000	0.000000	0.000000	0.000000	0.000000	24.647654	702.646095	-38.850741	0.241221	0.000000	-0.090941	0.000000	0.000000	0.000000	0.000000	-13.886469	0.000000	
12.524959	0.000000	0.000000	0.000000	0.000000	0.000000	0.000000	24.342582	701.929451	-38.807819	0.240709	0.000000	-0.090927	0.000000	0.000000	0.000000	0.000000	-13.868785	0.000000	
12.526626	0.000000	0.000000	0.000000	0.000000	0.000000	0.000000	24.043499	701.286702	-38.769631	0.240222	0.000000	-0.090911	0.000000	0.000000	0.000000	0.000000	-13.852720	0.000000	
12.528292	0.000000	0.000000	0.000000	0.000000	0.000000	0.000000	23.749950	700.716678	-38.735978	0.239757	0.000000	-0.090893	0.000000	0.000000	0.000000	0.000000	-13.838256	0.000000	
12.529955	0.000000	0.000000	0.000000	0.000000	0.000000	0.000000	23.461466	700.218091	-38.706641	0.239311	0.000000	-0.090872	0.000000	0.000000	0.000000	0.000000	-13.825370	0.000000	
12.531624	0.000000	0.000000	0.000000	0.000000	0.000000	0.000000	23.177570	699.789538	-38.681383	0.238883	0.000000	-0.090850	0.000000	0.000000	0.000000	0.000000	-13.814031	0.000000	
12.533290	0.000000	0.000000	0.000000	0.000000	0.000000	0.000000	22.897777	699.429509	-38.659952	0.238469	0.000000	-0.090826	0.000000	0.000000	0.000000	0.000000	-13.804202	0.000000	
12.534953	0.000000	0.000000	0.000000	0.000000	0.000000	0.000000	22.621594	699.136399	-38.642076	0.238067	0.000000	-0.090801	0.000000	0.000000	0.000000	0.000000	-13.795841	0.000000	
12.536626	0.000000	0.000000	0.000000	0.000000	0.000000	0.000000	22.348526	698.908510	-38.627473	0.237675	0.000000	-0.090774	0.000000	0.000000	0.000000	0.000000	-13.788901	0.000000	
12.538287	0.000000	0.000000	0.000000	0.000000	0.000000	0.000000	22.078075	698.744063	-38.615848	0.237290	0.000000	-0.090746	0.000000	0.000000	0.000000	0.000000	-13.783330	0.000000	
12.539953	0.000000	0.000000	0.000000	0.000000	0.000000	0.000000	21.809742	698.641205	-38.606898	0.236910	0.000000	-0.090718	0.000000	0.000000	0.000000	0.000000	-13.779071	0.000000	
12.541625	0.000000	0.000000	0.000000	0.000000	0.000000	0.000000	21.543034	698.598014	-38.600311	0.236532	0.000000	-0.090688	0.000000	0.000000	0.000000	0.000000	-13.776063	0.000000	
12.543295	0.000000	0.000000	0.000000	0.000000	0.000000	0.000000	21.277457	698.612510	-38.595769	0.236153	0.000000	-0.090659	0.000000	0.000000	0.000000	0.000000	-13.774245	0.000000	
12.544957	0.000000	0.000000	0.000000	0.000000	0.000000	0.000000	21.012526	698.682663	-38.592954	0.235771	0.000000	-0.090629	0.000000	0.000000	0.000000	0.000000	-13.773549	0.000000	
12.546619	0.000000	0.000000	0.000000	0.000000	0.000000	0.000000	20.747764	698.806396	-38.591542	0.235384	0.000000	-0.090598	0.000000	0.000000	0.000000	0.000000	-13.773906	0.000000	
12.548287	0.000000	0.000000	0.000000	0.000000	0.000000	0.000000	20.482703	698.981597	-38.591215	0.234990	0.000000	-0.090568	0.000000	0.000000	0.000000	0.000000	-13.775247	0.000000	
12.549958	0.000000	0.000000	0.000000	0.000000	0.000000	0.000000	20.216888	699.206126	-38.591653	0.234586	0.000000	-0.090538	0.000000	0.000000	0.000000	0.000000	-13.777499	0.000000	
12.551619	0.000000	0.000000	0.000000	0.000000	0.000000	0.000000	19.949875	699.477818	-38.592546	0.234170	0.000000	-0.090509	0.000000	0.000000	0.000000	0.000000	-13.780593	0.000000	
12.553285	0.000000	0.000000	0.000000	0.000000	0.000000	0.000000	19.681238	699.794495	-38.593588	0.233740	0.000000	-0.090480	0.000000	0.000000	0.000000	0.000000	-13.784454	0.000000	
12.554958	0.000000	0.000000	0.000000	0.000000	0.000000	0.000000	19.410564	700.153973	-38.594481	0.233295	0.000000	-0.090451	0.000000	0.000000	0.000000	0.000000	-13.789012	0.000000	
12.556620	0.000000	0.000000	0.000000	0.000000	0.000000	0.000000	19.137460	700.554064	-38.594941	0.232833	0.000000	-0.090424	0.000000	0.000000	0.000000	0.000000	-13.794197	0.000000	
12.558287	0.000000	0.000000	0.000000	0.000000	0.000000	0.000000	18.861551	700.992588	-38.594695	0.232353	0.000000	-0.090397	0.000000	0.000000	0.000000	0.000000	-13.799941	0.000000	
12.559957	0.000000	0.000000	0.000000	0.000000	0.000000	0.000000	18.582482	701.467378	-38.593483	0.231852	0.000000	-0.090371	0.000000	0.000000	0.000000	0.000000	-13.806176	0.000000	
12.561625	0.000000	0.000000	0.000000	0.000000	0.000000	0.000000	18.299920	701.976284	-38.591062	0.231330	0.000000	-0.090347	0.000000	0.000000	0.000000	0.000000	-13.812841	0.000000	
12.563288	0.000000	0.000000	0.000000	0.000000	0.000000	0.000000	18.013550	702.517184	-38.587208	0.230787	0.000000	-0.090324	0.000000	0.000000	0.000000	0.000000	-13.819875	0.000000	
12.564952	0.000000	0.000000	0.000000	0.000000	0.000000	0.000000	17.723083	703.087986	-38.581712	0.230220	0.000000	-0.090301	0.000000	0.000000	0.000000	0.000000	-13.827221	0.000000	
12.566631	0.000000	0.000000	0.000000	0.000000	0.000000	0.000000	17.428249	703.686636	-38.574388	0.229629	0.000000	-0.090281	0.000000	0.000000	0.000000	0.000000	-13.834830	0.000000	
12.568285	0.000000	0.000000	0.000000	0.000000	0.000000	0.000000	17.128804	704.311124	-38.565069	0.229015	0.000000	-0.090261	0.000000	0.000000	0.000000	0.000000	-13.842652	0.000000	
12.569957	0.000000	0.000000	0.000000	0.000000	0.000000	0.000000	16.824524	704.959488	-38.553611	0.228376	0.000000	-0.090243	0.000000	0.000000	0.000000	0.000000	-13.850646	0.000000	
12.571619	0.000000	0.000000	0.000000	0.000000	0.000000	0.000000	16.515209	705.629824	-38.539892	0.227712	0.000000	-0.090226	0.000000	0.000000	0.000000	0.000000	-13.858776	0.000000	
12.573284	0.000000	0.000000	0.000000	0.000000	0.000000	0.000000	16.200681	706.320283	-38.523813	0.227024	0.000000	-0.090211	0.000000	0.000000	0.000000	0.000000	-13.867011	0.000000	
12.574949	0.000000	0.000000	0.000000	0.000000	0.000000	0.000000	15.880783	707.029085	-38.505299	0.226311	0.000000	-0.090197	0.000000	0.000000	0.000000	0.000000	-13.875325	0.000000	
12.576626	0.000000	0.000000	0.000000	0.000000	0.000000	0.000000	15.555383	707.754519	-38.484301	0.225574	0.000000	-0.090185	0.000000	0.000000	0.000000	0.000000	-13.883700	0.000000	
12.578289	0.000000	0.000000	0.000000	0.000000	0.000000	0.000000	15.224366	708.494946	-38.460792	0.224814	0.000000	-0.090173	0.000000	0.000000	0.000000	0.000000	-13.892122	0.000000	
12.579952	0.000000	0.000000	0.000000	0.000000	0.000000	0.000000	14.887638	709.248809	-38.434771	0.224030	0.000000	-0.090164	0.000000	0.000000	0.000000	0.000000	-13.900584	0.000000	
12.581624	0.000000	0.000000	0.000000	0.000000	0.000000	0.000000	14.545127	710.014632	-38.406260	0.223224	0.000000	-0.090155	0.000000	0.000000	0.000000	0.000000	-13.909086	0.000000	
12.583287	0.000000	0.000000	0.000000	0.000000	0.000000	0.000000	14.196775	710.791026	-38.375309	0.222396	0.000000	-0.090148	0.000000	0.000000	0.000000	0.000000	-13.917632	0.000000	
12.584957	0.000000	0.000000	0.000000	0.000000	0.000000	0.000000	13.842545	711.576692	-38.341988	0.221548	0.000000	-0.090141	0.000000	0.000000	0.000000	0.000000	-13.926235	0.000000	
